# xmcd CD database file
#
# Track frame offsets:
#	150
#	15995
#	34052
#	51145
#	65195
#	80516
#	94300
#	110666
#	126210
#	144893
#	158676
#	176436
#	190899
#
# Disc length: 2791 seconds
#
# Revision: 0
# Processed by: cddbd v1.5.2PL0 Copyright (c) Steve Scherf et al.
# Submitted via: CDex 1.70beta2
#
DISCID=aa0ae50d
DTITLE=Ronni Rae - Whole Heart to Give
DYEAR=2008
DGENRE=Country
TTITLE0=Whole Heart to Give
TTITLE1=Running on Fumes
TTITLE2=Burned Too Bright
TTITLE3=Fire In Your Eyes
TTITLE4=Look It Up
TTITLE5=(Till the) Cowboys Come Home
TTITLE6=Can You Let Somebody Else Be Strong
TTITLE7=I Would Want To
TTITLE8=I Think Of You
TTITLE9=Broken
TTITLE10=Wainting On Lonely
TTITLE11=Things I Want
TTITLE12=Stranded
EXTD=YEAR: 2008
EXTT0=
EXTT1=
EXTT2=
EXTT3=
EXTT4=
EXTT5=
EXTT6=
EXTT7=
EXTT8=
EXTT9=
EXTT10=
EXTT11=
EXTT12=
PLAYORDER=
